<svg width="385" height="203" viewBox="0 0 385 203" fill="none" xmlns="http://www.w3.org/2000/svg">
<path d="M312.944 140.673C316.29 143.557 316.676 148.619 313.675 151.863C294.7 172.378 272.112 189.228 247.041 201.571C243.077 203.522 238.334 201.711 236.523 197.681L215.059 149.921C213.247 145.891 215.057 141.174 218.991 139.163C234.973 130.994 249.462 120.185 261.847 107.193C264.896 103.995 269.933 103.605 273.279 106.489L312.944 140.673ZM158.234 97.7248C162.247 94.5997 168.174 95.6052 170.776 99.976C179.529 114.678 187.532 125.111 202.695 136.65C206.856 139.816 207.271 146.033 203.2 149.313C176.237 171.036 144.64 186.358 110.79 194.059C76.1835 201.932 40.2537 201.605 5.8598 193.153C1.56919 192.098 -0.897969 187.661 0.306358 183.41L14.5789 133.032C15.7832 128.781 20.2023 126.332 24.5083 127.322C47.8721 132.692 72.1823 132.734 95.6248 127.4C118.455 122.206 139.822 112.06 158.234 97.7248ZM334.391 3.08984C340.613 -1.50101 349.427 -1.00894 354.546 4.78613L381.264 35.0381C386.383 40.8332 385.86 49.7176 379.761 54.4707C344.053 82.3016 300.764 98.9335 255.388 102.068C210.012 105.203 164.848 94.6824 125.652 72.0264C118.958 68.157 117.218 59.4284 121.491 52.9844L143.796 19.3467C148.069 12.9027 156.731 11.2028 163.525 14.8945C190.095 29.3324 220.318 35.9674 250.677 33.8701C281.035 31.7727 310.06 21.0444 334.391 3.08984Z" fill="white"/>
</svg>
