<svg width="385" height="203" viewBox="0 0 385 203" fill="none" xmlns="http://www.w3.org/2000/svg">
<path d="M312.942 140.673C316.289 143.557 316.674 148.619 313.674 151.863C294.699 172.377 272.111 189.228 247.04 201.571C243.076 203.522 238.334 201.711 236.523 197.681L215.058 149.921C213.247 145.891 215.056 141.174 218.99 139.163C234.972 130.994 249.462 120.185 261.846 107.193C264.895 103.995 269.932 103.605 273.279 106.489L312.942 140.673ZM158.233 97.7248C162.247 94.5997 168.173 95.6052 170.775 99.9761C179.529 114.678 187.531 125.111 202.694 136.65C206.854 139.816 207.27 146.033 203.198 149.313C176.236 171.035 144.638 186.358 110.788 194.059C76.182 201.932 40.2522 201.605 5.85832 193.153C1.56771 192.098 -0.899436 187.661 0.30489 183.41L14.5774 133.032C15.7817 128.781 20.2008 126.332 24.5068 127.322C47.8706 132.692 72.1808 132.734 95.6233 127.4C118.454 122.206 139.822 112.06 158.233 97.7248ZM334.39 3.08984C340.611 -1.50096 349.426 -1.00877 354.544 4.78613L381.264 35.0381C386.382 40.8333 385.858 49.7177 379.76 54.4707C344.052 82.3015 300.764 98.9334 255.388 102.068C210.012 105.203 164.847 94.6824 125.651 72.0264C118.957 68.157 117.217 59.4283 121.49 52.9844L143.794 19.3467C148.067 12.9027 156.73 11.203 163.524 14.8945C190.093 29.3325 220.317 35.9675 250.676 33.8701C281.035 31.7727 310.058 21.0442 334.39 3.08984Z" fill="#2B00FF"/>
</svg>
